<?xml version="1.0" encoding="UTF-8"?>
<svg xmlns="http://www.w3.org/2000/svg" viewBox="0 0 1940 620" role="img" aria-labelledby="title desc">
  <style>
    @font-face { font-family: "WeiBeiStele"; src: url("../../fonts/WeiBeiStele.ttf") format("truetype"); }
    @font-face { font-family: "WeiBeiSteleMono"; src: url("../../fonts/WeiBeiSteleMono.ttf") format("truetype"); }
  </style>
  <title id="title">WeiBei English lockup</title>
  <desc id="desc">WeiBei mark and provisional English wordmark. Keep the mark independent while naming remains under review.</desc>
  <g transform="translate(24 -8) scale(.5)">
    <g fill="#231F1C">
      <path d="M220 170H432V708H158V260Z"/><path d="M511 170H749V708H511Z"/><path d="M825 170H1010L1098 258V708H825Z"/>
      <path d="M158 708H432L474 816L511 708H749L789 816L825 708H1098V940L1014 1025L982 1083H915L814 967L720 1083H585L482 967L391 1083H270L158 960Z"/>
    </g>
    <path fill="#AA2A23" d="M1042 1020H1108V1086H1042Z"/>
  </g>
  <text x="690" y="365" fill="#231F1C" font-family="WeiBeiStele, WeiBeiStele-Regular" font-size="190" letter-spacing="18">WEIBEI</text>
  <text x="700" y="460" fill="#686157" font-family="WeiBeiSteleMono, WeiBeiSteleMono-Regular" font-size="44" letter-spacing="4">READ · NOTE · ASK · RETURN TO SOURCE</text>
</svg>
